<?xml version="1.0" encoding="UTF-8" standalone="no"?>
<svg
   xmlns:dc="http://purl.org/dc/elements/1.1/"
   xmlns:cc="http://creativecommons.org/ns#"
   xmlns:rdf="http://www.w3.org/1999/02/22-rdf-syntax-ns#"
   xmlns:svg="http://www.w3.org/2000/svg"
   xmlns="http://www.w3.org/2000/svg"
   xmlns:xlink="http://www.w3.org/1999/xlink"
   xmlns:sodipodi="http://sodipodi.sourceforge.net/DTD/sodipodi-0.dtd"
   xmlns:inkscape="http://www.inkscape.org/namespaces/inkscape"
   width="2500"
   height="2344"
   viewBox="0 0 256 240"
   preserveAspectRatio="xMinYMin meet"
   version="1.1"
   id="svg35"
   sodipodi:docname="eclipse-scala-2.svg"
   inkscape:version="0.92.2 2405546, 2018-03-11">
  <metadata
     id="metadata39">
    <rdf:RDF>
      <cc:Work
         rdf:about="">
        <dc:format>image/svg+xml</dc:format>
        <dc:type
           rdf:resource="http://purl.org/dc/dcmitype/StillImage" />
      </cc:Work>
    </rdf:RDF>
  </metadata>
  <sodipodi:namedview
     pagecolor="#ffffff"
     bordercolor="#666666"
     borderopacity="1"
     objecttolerance="10"
     gridtolerance="10"
     guidetolerance="10"
     inkscape:pageopacity="0"
     inkscape:pageshadow="2"
     inkscape:window-width="1920"
     inkscape:window-height="1023"
     id="namedview37"
     showgrid="false"
     inkscape:zoom="0.19432194"
     inkscape:cx="1101.2629"
     inkscape:cy="709.19414"
     inkscape:window-x="0"
     inkscape:window-y="0"
     inkscape:window-maximized="1"
     inkscape:current-layer="svg35" />
  <defs
     id="defs17">
    <linearGradient
       x1="50%"
       y1="1089.396%"
       x2="50%"
       y2="-159.5%"
       id="a">
      <stop
         stop-color="#473788"
         offset="30.33%"
         id="stop2" />
      <stop
         stop-color="#2C2255"
         offset="87.2%"
         id="stop4" />
    </linearGradient>
    <linearGradient
       x1="49.999%"
       y1="896.537%"
       x2="49.999%"
       y2="-352.359%"
       id="b">
      <stop
         stop-color="#473788"
         offset="30.33%"
         id="stop7" />
      <stop
         stop-color="#2C2255"
         offset="87.2%"
         id="stop9" />
    </linearGradient>
    <linearGradient
       x1="49.999%"
       y1="215.17%"
       x2="49.999%"
       y2="-166.715%"
       id="c">
      <stop
         stop-color="#473788"
         offset="30.33%"
         id="stop12" />
      <stop
         stop-color="#2C2255"
         offset="86.31%"
         id="stop14" />
    </linearGradient>
    <linearGradient
       id="linearGradient5059">
      <stop
         style="stop-color:#0b0826;stop-opacity:0.49803922;"
         offset="0"
         id="stop5061" />
      <stop
         style="stop-color:#0b0826;stop-opacity:1;"
         offset="1"
         id="stop5063" />
    </linearGradient>
    <clipPath
       id="XMLID_4_">
      <use
         height="100%"
         width="100%"
         y="0"
         x="0"
         style="overflow:visible"
         xlink:href="#XMLID_2_"
         overflow="visible"
         id="use6" />
    </clipPath>
    <path
       inkscape:connector-curvature="0"
       id="XMLID_2_"
       d="M 151.3,168 H 48.7 C 39.5,168 32,160.5 32,151.3 V 48.7 C 32,39.5 39.5,32 48.7,32 h 102.7 c 9.2,0 16.7,7.5 16.7,16.7 v 102.7 c -0.1,9.1 -7.6,16.6 -16.8,16.6 z" />
  </defs>
  <path
     d="M70.382 153.049H31.26c5.18 17.768 14.792 33.693 28.864 47.768 22.434 22.436 49.41 33.64 80.956 33.64 6.306 0 12.416-.47 18.35-1.365 23.761-3.587 44.565-14.33 62.39-32.275 14.162-14.07 23.842-30 29.062-47.768H70.382zM48.81 99.915H28.373a119.493 119.493 0 0 0-1.488 13.775h228.399c-.233-4.7-.743-9.285-1.497-13.775M26.885 126.482c.231 4.703.738 9.287 1.488 13.775h225.418a118.86 118.86 0 0 0 1.5-13.775M250.887 87.12c-5.215-17.817-14.897-33.817-29.067-47.99-17.778-17.777-38.522-28.443-62.207-32.031a123.318 123.318 0 0 0-18.532-1.386c-31.546 0-58.524 11.143-80.956 33.418C46.048 53.303 36.43 69.303 31.254 87.12"
     fill="#2C2255"
     id="path19" />
  <path
     d="M20.093 120.09C20.093 59.753 65.407 9.621 124.357.803c-1.462-.053-2.932-.112-4.409-.112C53.796.692.164 54.15.164 120.09c0 65.943 53.63 119.397 119.784 119.397 1.482 0 2.951-.056 4.419-.11-58.96-8.817-104.274-58.95-104.274-119.287z"
     fill="#F7941E"
     id="path21" />
  <g
     id="g29">
    <path
       d="M155.728 14.226A77.824 77.824 0 0 0 153.364.451H2.642A77.753 77.753 0 0 0 .276 14.226h155.452z"
       fill="url(#a)"
       transform="translate(63.083 99.461)"
       id="path23" />
    <path
       d="M155.728 27.02H.278a77.611 77.611 0 0 0 2.364 13.776h150.724a77.821 77.821 0 0 0 2.362-13.776z"
       fill="url(#b)"
       transform="translate(63.083 99.461)"
       id="path25" />
    <path
       d="M78.003 98.636c31.3 0 58.282-18.441 70.706-45.048H7.297c12.425 26.607 39.405 45.048 70.706 45.048z"
       fill="url(#c)"
       transform="translate(63.083 99.461)"
       id="path27" />
  </g>
  <g
     fill="#FFF"
     id="g33">
    <path
       d="M51.84 126.482h203.29c.108-2.035.168-4.084.168-6.147 0-2.232-.081-4.444-.208-6.647H26.885c-.126 2.2-.208 4.415-.208 6.647 0 2.063.06 4.112.168 6.147H51.84zM69.924 87.12H31.252c-1.271 4.166-2.091 8.44-2.879 12.795H253.065a113.52 113.52 0 0 0-3.075-12.795M238.373 140.255H28.371c.766 4.352 1.638 8.623 2.888 12.794H250.738a113.252 113.252 0 0 0 3.023-12.794h-15.388z"
       id="path31" />
  </g>
  <g
     transform="matrix(1.3564947,0,0,1.3828396,-1.3688237,-18.810922)"
     id="Scala_Icon">
    <path
       style="fill:#dc332d"
       inkscape:connector-curvature="0"
       id="XMLID_1_"
       d="M 151.3,168 H 48.7 C 39.5,168 32,160.5 32,151.3 V 48.7 C 32,39.5 39.5,32 48.7,32 h 102.7 c 9.2,0 16.7,7.5 16.7,16.7 v 102.7 c -0.1,9.1 -7.6,16.6 -16.8,16.6 z" />
    <g
       id="shadow">
      <defs
         id="defs4">
        <path
           inkscape:connector-curvature="0"
           id="path860"
           d="M 151.3,168 H 48.7 C 39.5,168 32,160.5 32,151.3 V 48.7 C 32,39.5 39.5,32 48.7,32 h 102.7 c 9.2,0 16.7,7.5 16.7,16.7 v 102.7 c -0.1,9.1 -7.6,16.6 -16.8,16.6 z" />
      </defs>
      <clipPath
         id="clipPath853">
        <use
           height="100%"
           width="100%"
           y="0"
           x="0"
           style="overflow:visible"
           xlink:href="#XMLID_2_"
           overflow="visible"
           id="use851" />
      </clipPath>
      <polygon
         style="opacity:0.3"
         clip-path="url(#XMLID_4_)"
         points="77.4,96.3 68.5,121 78.1,130.5 68.5,154.5 82.1,168 168,168 168,82 131.5,45.5 131.5,52.4 68.5,87.4 "
         id="polygon9" />
    </g>
    <g
       id="logo">
      <g
         style="opacity:0.6"
         id="g16">
        <path
           style="fill:#ffffff"
           inkscape:connector-curvature="0"
           d="m 68.5,87.4 c 0,0 62.9,6.3 62.9,16.8 V 79 c 0,0 0,-10.5 -62.9,-16.8 V 72 Z"
           id="path12" />
        <path
           style="fill:#ffffff"
           inkscape:connector-curvature="0"
           d="m 68.5,121 c 0,0 62.9,6.3 62.9,16.8 v -25.2 c 0,0 0,-10.5 -62.9,-16.8 z"
           id="path14" />
      </g>
      <path
         style="fill:#ffffff"
         inkscape:connector-curvature="0"
         d="m 131.5,45.5 v 25.2 c 0,0 0,10.5 -62.9,16.8 V 62.2 c -0.1,0 62.9,-6.2 62.9,-16.7"
         id="path18" />
      <path
         style="fill:#ffffff"
         inkscape:connector-curvature="0"
         d="m 68.5,95.8 c 0,0 62.9,-6.3 62.9,-16.8 v 25.2 c 0,0 0,10.5 -62.9,16.8 z"
         id="path20" />
      <path
         style="fill:#ffffff"
         inkscape:connector-curvature="0"
         d="m 68.5,154.5 v -25.2 c 0,0 62.9,-6.3 62.9,-16.8 v 25.2 c 0.1,0.1 0.1,10.5 -62.9,16.8"
         id="path22" />
    </g>
  </g>
</svg>
