<?xml version="1.0" encoding="UTF-8" standalone="no"?>
<svg
   xmlns:dc="http://purl.org/dc/elements/1.1/"
   xmlns:cc="http://creativecommons.org/ns#"
   xmlns:rdf="http://www.w3.org/1999/02/22-rdf-syntax-ns#"
   xmlns:svg="http://www.w3.org/2000/svg"
   xmlns="http://www.w3.org/2000/svg"
   xmlns:sodipodi="http://sodipodi.sourceforge.net/DTD/sodipodi-0.dtd"
   xmlns:inkscape="http://www.inkscape.org/namespaces/inkscape"
   width="2500"
   height="2344"
   viewBox="0 0 256 240"
   preserveAspectRatio="xMinYMin meet"
   version="1.1"
   id="svg35"
   sodipodi:docname="eclipse-java-2.svg"
   inkscape:version="0.92.2 2405546, 2018-03-11">
  <metadata
     id="metadata39">
    <rdf:RDF>
      <cc:Work
         rdf:about="">
        <dc:format>image/svg+xml</dc:format>
        <dc:type
           rdf:resource="http://purl.org/dc/dcmitype/StillImage" />
        <dc:title />
      </cc:Work>
    </rdf:RDF>
  </metadata>
  <sodipodi:namedview
     pagecolor="#ffffff"
     bordercolor="#666666"
     borderopacity="1"
     objecttolerance="10"
     gridtolerance="10"
     guidetolerance="10"
     inkscape:pageopacity="0"
     inkscape:pageshadow="2"
     inkscape:window-width="1920"
     inkscape:window-height="1023"
     id="namedview37"
     showgrid="false"
     inkscape:zoom="0.22354558"
     inkscape:cx="1828.4913"
     inkscape:cy="534.73204"
     inkscape:window-x="0"
     inkscape:window-y="0"
     inkscape:window-maximized="1"
     inkscape:current-layer="svg35" />
  <defs
     id="defs17">
    <linearGradient
       x1="50%"
       y1="1089.396%"
       x2="50%"
       y2="-159.5%"
       id="a">
      <stop
         stop-color="#473788"
         offset="30.33%"
         id="stop2" />
      <stop
         stop-color="#2C2255"
         offset="87.2%"
         id="stop4" />
    </linearGradient>
    <linearGradient
       x1="49.999%"
       y1="896.537%"
       x2="49.999%"
       y2="-352.359%"
       id="b">
      <stop
         stop-color="#473788"
         offset="30.33%"
         id="stop7" />
      <stop
         stop-color="#2C2255"
         offset="87.2%"
         id="stop9" />
    </linearGradient>
    <linearGradient
       x1="49.999%"
       y1="215.17%"
       x2="49.999%"
       y2="-166.715%"
       id="c">
      <stop
         stop-color="#473788"
         offset="30.33%"
         id="stop12" />
      <stop
         stop-color="#2C2255"
         offset="86.31%"
         id="stop14" />
    </linearGradient>
  </defs>
  <path
     d="M70.382 153.049H31.26c5.18 17.768 14.792 33.693 28.864 47.768 22.434 22.436 49.41 33.64 80.956 33.64 6.306 0 12.416-.47 18.35-1.365 23.761-3.587 44.565-14.33 62.39-32.275 14.162-14.07 23.842-30 29.062-47.768H70.382zM48.81 99.915H28.373a119.493 119.493 0 0 0-1.488 13.775h228.399c-.233-4.7-.743-9.285-1.497-13.775M26.885 126.482c.231 4.703.738 9.287 1.488 13.775h225.418a118.86 118.86 0 0 0 1.5-13.775M250.887 87.12c-5.215-17.817-14.897-33.817-29.067-47.99-17.778-17.777-38.522-28.443-62.207-32.031a123.318 123.318 0 0 0-18.532-1.386c-31.546 0-58.524 11.143-80.956 33.418C46.048 53.303 36.43 69.303 31.254 87.12"
     fill="#2C2255"
     id="path19" />
  <path
     d="M20.093 120.09C20.093 59.753 65.407 9.621 124.357.803c-1.462-.053-2.932-.112-4.409-.112C53.796.692.164 54.15.164 120.09c0 65.943 53.63 119.397 119.784 119.397 1.482 0 2.951-.056 4.419-.11-58.96-8.817-104.274-58.95-104.274-119.287z"
     fill="#F7941E"
     id="path21"
     style="fill:#ed1e24;fill-opacity:1" />
  <g
     id="g29">
    <path
       d="M155.728 14.226A77.824 77.824 0 0 0 153.364.451H2.642A77.753 77.753 0 0 0 .276 14.226h155.452z"
       fill="url(#a)"
       transform="translate(63.083 99.461)"
       id="path23" />
    <path
       d="M155.728 27.02H.278a77.611 77.611 0 0 0 2.364 13.776h150.724a77.821 77.821 0 0 0 2.362-13.776z"
       fill="url(#b)"
       transform="translate(63.083 99.461)"
       id="path25" />
    <path
       d="M78.003 98.636c31.3 0 58.282-18.441 70.706-45.048H7.297c12.425 26.607 39.405 45.048 70.706 45.048z"
       fill="url(#c)"
       transform="translate(63.083 99.461)"
       id="path27" />
  </g>
  <g
     fill="#FFF"
     id="g33"
     style="fill:#463686;fill-opacity:1">
    <path
       d="M51.84 126.482h203.29c.108-2.035.168-4.084.168-6.147 0-2.232-.081-4.444-.208-6.647H26.885c-.126 2.2-.208 4.415-.208 6.647 0 2.063.06 4.112.168 6.147H51.84zM69.924 87.12H31.252c-1.271 4.166-2.091 8.44-2.879 12.795H253.065a113.52 113.52 0 0 0-3.075-12.795M238.373 140.255H28.371c.766 4.352 1.638 8.623 2.888 12.794H250.738a113.252 113.252 0 0 0 3.023-12.794h-15.388z"
       id="path31"
       style="fill:#463686;fill-opacity:1" />
  </g>
  <g
     id="g827"
     transform="matrix(0.36845547,0,0,0.30751278,-127.68474,10.701401)"
     style="fill:#ff7f2a">
    <path
       inkscape:connector-curvature="0"
       id="path14"
       style="fill:#ff7f2a;fill-opacity:1;fill-rule:evenodd;stroke:none;stroke-width:1.91712976"
       d="m 652.39179,396.81718 c -0.14187,3.72115 -8.90315,8.69418 -11.77118,10.51354 -13.20327,8.35102 -32.17327,13.89152 -44.55218,1.51262 -11.97439,-11.96673 -8.60408,-34.32046 4.31355,-42.23629 6.50098,-3.9397 14.9191,-5.7744 23.75515,-6.52208 7.06079,-0.59239 21.50061,-1.86536 28.11279,-1.11002 z m -89.2884,-115.41697 5.16666,20.36951 c 8.70952,-2.12035 13.9452,-5.18967 27.06412,-7.78163 10.21639,-1.96889 21.32807,-3.1 32.26338,-1.7005 11.0235,1.41676 17.17173,5.54243 20.95231,13.7209 1.91713,4.118 2.95813,8.98559 3.49109,14.06982 l -0.12844,16.47581 c -0.71893,0.38151 -32.94971,2.41942 -37.57,3.00414 -32.1656,4.12567 -64.54017,21.60414 -59.5077,62.02107 3.13067,25.14699 16.68669,36.59801 42.08866,39.66925 13.92795,1.68324 23.13209,0.0805 34.65788,-4.80049 4.86759,-2.06092 9.3901,-4.42666 13.49467,-7.02437 5.50408,-3.41632 10.31991,-8.34335 11.42034,-8.97216 l 3.40674,17.27717 h 26.09789 c 0.48695,-5.27978 0.0978,-69.91581 0.0978,-77.09737 0,-12.89654 0,-25.75473 0,-38.64934 0,-12.48435 -0.94323,-22.33265 -6.7924,-31.60389 -17.67977,-28.14921 -56.1278,-26.81681 -87.88889,-19.15596 -7.1068,1.70817 -23.96988,6.35721 -28.31409,10.17804" />
    <path
       inkscape:connector-curvature="0"
       id="path16"
       style="fill:#ff7f2a;fill-opacity:1;fill-rule:evenodd;stroke:none;stroke-width:1.91712976"
       d="m 966.14158,398.95095 c -2.25262,1.27297 -4.61261,3.55052 -7.19498,5.42931 -7.35411,5.30278 -16.49882,10.2068 -26.19758,11.41267 -28.7627,3.55053 -35.52634,-26.09789 -26.28385,-41.39083 9.87705,-16.32436 41.19528,-15.42715 59.76652,-15.50191 z M 877.01805,281.40021 c 0.18021,3.17477 4.10458,17.9731 5.40056,20.28707 4.84459,-0.98157 15.49999,-5.46765 27.16189,-7.75095 16.92443,-3.35498 44.73623,-6.15591 52.87828,12.08558 3.31663,7.45955 5.72071,28.08404 3.37606,30.44211 -1.45893,1.07167 -15.58434,1.17711 -18.82621,1.39375 -18.67668,1.1752 -34.12683,2.59004 -50.32466,11.12127 -17.18707,9.00092 -31.47544,24.80958 -27.93258,52.70573 3.21886,25.34254 16.76722,36.41013 42.10209,39.56381 18.61725,2.33506 33.25645,-2.47885 48.16788,-11.84786 6.49141,-4.08157 9.2329,-7.62443 11.44143,-9.08336 l 3.28021,17.36536 26.257,0.0307 v -115.7314 c 0,-13.04607 -1.0199,-22.1371 -6.95725,-31.87228 -17.10463,-28.02461 -56.59367,-26.15157 -87.63392,-18.9029 -7.27167,1.68515 -23.8606,6.3131 -28.39078,10.19337" />
    <path
       inkscape:connector-curvature="0"
       id="path18"
       style="fill:#ff7f2a;fill-opacity:1;fill-rule:evenodd;stroke:none;stroke-width:1.91712976"
       d="m 758.9056,438.05081 41.84711,0.006 c 1.38609,-0.3355 4.32888,-7.0838 5.13791,-8.70185 1.57972,-3.24954 2.82202,-6.19233 4.30587,-9.42845 2.81435,-6.12523 5.41398,-12.96171 7.86215,-19.49912 10.10328,-27.05837 18.27217,-56.58601 25.22943,-84.81191 1.70816,-6.95726 9.75819,-40.52046 9.75819,-45.32095 l -31.27989,-0.023 c -6.83073,-0.0824 -4.05856,-0.94323 -5.89325,12.98472 -1.88838,14.44749 -4.92128,28.89306 -8.40278,42.5066 -2.56129,9.9384 -20.28707,73.13658 -23.82226,77.21048 l -8.93382,-33.85076 c -3.35498,-11.26313 -6.42622,-22.10642 -9.94607,-33.15867 l -15.44057,-49.0977 c -1.75992,-5.52708 -3.43741,-11.44335 -5.47532,-16.50457 l -36.97185,-0.0901 c 0.15721,3.26487 24.2862,78.70776 25.9196,84.03163 4.42473,14.36314 8.70185,27.55107 13.05949,41.67457 4.2311,13.91453 9.20414,28.28533 13.04606,42.07333" />
    <path
       inkscape:connector-curvature="0"
       id="path20"
       style="fill:#ff7f2a;fill-opacity:1;fill-rule:evenodd;stroke:none;stroke-width:1.91712976"
       d="m 493.01504,266.72842 0.023,145.23792 c 0,27.00469 -8.81496,57.78421 -35.90017,66.6356 1.57972,3.28787 13.25504,15.2546 16.35504,19.89022 9.18113,-1.62573 22.66814,-10.03426 27.73895,-14.85009 7.76437,-7.3311 12.54186,-13.0384 18.2875,-24.77315 11.4721,-23.38707 9.64508,-48.16789 9.64508,-76.22125 0,-57.31834 0.29907,-114.69804 -0.0153,-172.01638 -4.22344,-0.75727 -29.01959,-0.26265 -36.13406,-0.24731 v 56.34444" />
  </g>
</svg>
