<?xml version="1.0" encoding="UTF-8" standalone="no"?>
<svg
   xmlns:osb="http://www.openswatchbook.org/uri/2009/osb"
   xmlns:dc="http://purl.org/dc/elements/1.1/"
   xmlns:cc="http://creativecommons.org/ns#"
   xmlns:rdf="http://www.w3.org/1999/02/22-rdf-syntax-ns#"
   xmlns:svg="http://www.w3.org/2000/svg"
   xmlns="http://www.w3.org/2000/svg"
   xmlns:xlink="http://www.w3.org/1999/xlink"
   xmlns:sodipodi="http://sodipodi.sourceforge.net/DTD/sodipodi-0.dtd"
   xmlns:inkscape="http://www.inkscape.org/namespaces/inkscape"
   width="2500"
   height="2344"
   viewBox="0 0 256 240"
   preserveAspectRatio="xMinYMin meet"
   version="1.1"
   id="svg35"
   sodipodi:docname="eclipse-cpp-1.svg"
   inkscape:version="0.92.2 2405546, 2018-03-11">
  <metadata
     id="metadata39">
    <rdf:RDF>
      <cc:Work
         rdf:about="">
        <dc:format>image/svg+xml</dc:format>
        <dc:type
           rdf:resource="http://purl.org/dc/dcmitype/StillImage" />
      </cc:Work>
    </rdf:RDF>
  </metadata>
  <sodipodi:namedview
     pagecolor="#ffffff"
     bordercolor="#666666"
     borderopacity="1"
     objecttolerance="10"
     gridtolerance="10"
     guidetolerance="10"
     inkscape:pageopacity="0"
     inkscape:pageshadow="2"
     inkscape:window-width="1920"
     inkscape:window-height="1023"
     id="namedview37"
     showgrid="false"
     inkscape:zoom="0.1767767"
     inkscape:cx="1285.1108"
     inkscape:cy="620.28212"
     inkscape:window-x="0"
     inkscape:window-y="0"
     inkscape:window-maximized="1"
     inkscape:current-layer="svg35" />
  <defs
     id="defs17">
    <linearGradient
       id="linearGradient4590"
       osb:paint="solid">
      <stop
         style="stop-color:#000000;stop-opacity:1;"
         offset="0"
         id="stop4588" />
    </linearGradient>
    <linearGradient
       x1="50%"
       y1="1089.396%"
       x2="50%"
       y2="-159.5%"
       id="a">
      <stop
         stop-color="#473788"
         offset="30.33%"
         id="stop2" />
      <stop
         stop-color="#2C2255"
         offset="87.2%"
         id="stop4" />
    </linearGradient>
    <linearGradient
       x1="49.999%"
       y1="896.537%"
       x2="49.999%"
       y2="-352.359%"
       id="b">
      <stop
         stop-color="#473788"
         offset="30.33%"
         id="stop7" />
      <stop
         stop-color="#2C2255"
         offset="87.2%"
         id="stop9" />
    </linearGradient>
    <linearGradient
       x1="49.999%"
       y1="215.17%"
       x2="49.999%"
       y2="-166.715%"
       id="c">
      <stop
         stop-color="#473788"
         offset="30.33%"
         id="stop12" />
      <stop
         stop-color="#2C2255"
         offset="86.31%"
         id="stop14" />
    </linearGradient>
    <linearGradient
       inkscape:collect="always"
       xlink:href="#linearGradient4590"
       id="linearGradient4592"
       x1="48.846752"
       y1="139.4411"
       x2="172.32662"
       y2="139.4411"
       gradientUnits="userSpaceOnUse" />
  </defs>
  <g
     id="g49">
    <path
       id="path19"
       fill="#2C2255"
       d="M70.382 153.049H31.26c5.18 17.768 14.792 33.693 28.864 47.768 22.434 22.436 49.41 33.64 80.956 33.64 6.306 0 12.416-.47 18.35-1.365 23.761-3.587 44.565-14.33 62.39-32.275 14.162-14.07 23.842-30 29.062-47.768H70.382zM48.81 99.915H28.373a119.493 119.493 0 0 0-1.488 13.775h228.399c-.233-4.7-.743-9.285-1.497-13.775M26.885 126.482c.231 4.703.738 9.287 1.488 13.775h225.418a118.86 118.86 0 0 0 1.5-13.775M250.887 87.12c-5.215-17.817-14.897-33.817-29.067-47.99-17.778-17.777-38.522-28.443-62.207-32.031a123.318 123.318 0 0 0-18.532-1.386c-31.546 0-58.524 11.143-80.956 33.418C46.048 53.303 36.43 69.303 31.254 87.12" />
    <path
       id="path21"
       fill="#F7941E"
       d="M20.093 120.09C20.093 59.753 65.407 9.621 124.357.803c-1.462-.053-2.932-.112-4.409-.112C53.796.692.164 54.15.164 120.09c0 65.943 53.63 119.397 119.784 119.397 1.482 0 2.951-.056 4.419-.11-58.96-8.817-104.274-58.95-104.274-119.287z" />
    <g
       id="g29">
      <path
         id="path23"
         transform="translate(63.083 99.461)"
         fill="url(#a)"
         d="M155.728 14.226A77.824 77.824 0 0 0 153.364.451H2.642A77.753 77.753 0 0 0 .276 14.226h155.452z" />
      <path
         id="path25"
         transform="translate(63.083 99.461)"
         fill="url(#b)"
         d="M155.728 27.02H.278a77.611 77.611 0 0 0 2.364 13.776h150.724a77.821 77.821 0 0 0 2.362-13.776z" />
      <path
         id="path27"
         transform="translate(63.083 99.461)"
         fill="url(#c)"
         d="M78.003 98.636c31.3 0 58.282-18.441 70.706-45.048H7.297c12.425 26.607 39.405 45.048 70.706 45.048z" />
    </g>
    <path
       style="fill:#f7941e;fill-opacity:1"
       inkscape:connector-curvature="0"
       d="m 52.0448,126.482 h 203.29 c 0.108,-2.035 0.168,-4.084 0.168,-6.147 0,-2.232 -0.081,-4.444 -0.208,-6.647 H 27.0898 c -0.126,2.2 -0.208,4.415 -0.208,6.647 0,2.063 0.06,4.112 0.168,6.147 z M 70.1288,87.12 h -38.672 c -1.271,4.166 -2.091,8.44 -2.879,12.795 h 224.692 a 113.52,113.52 0 0 0 -3.075,-12.795 m -11.617,53.135 H 28.5758 c 0.766,4.352 1.638,8.623 2.888,12.794 h 219.479 a 113.252,113.252 0 0 0 3.023,-12.794 z"
       id="path31" />
  </g>
  <text
     xml:space="preserve"
     style="font-style:normal;font-variant:normal;font-weight:bold;font-stretch:normal;font-size:206.77787781px;line-height:1.25;font-family:sans-serif;-inkscape-font-specification:'sans-serif, Bold';font-variant-ligatures:normal;font-variant-caps:normal;font-variant-numeric:normal;font-feature-settings:normal;text-align:start;letter-spacing:0px;word-spacing:0px;writing-mode:lr-tb;text-anchor:start;fill:#d40000;fill-opacity:1;stroke:#2c2255;stroke-width:0.01063451;stroke-miterlimit:4;stroke-dasharray:none;stroke-opacity:1;"
     x="36.193386"
     y="206.37405"
     id="text61"
     transform="scale(1.0923283,0.91547569)"><tspan
       sodipodi:role="line"
       id="tspan63"
       x="36.193386"
       y="206.37405"
       style="fill:#d40000;fill-opacity:1;stroke:#2c2255;stroke-width:0.01063451;stroke-miterlimit:4;stroke-dasharray:none;stroke-opacity:1;">C</tspan><tspan
       sodipodi:role="line"
       x="36.193386"
       y="464.84641"
       style="fill:#d40000;fill-opacity:1;stroke:#2c2255;stroke-width:0.01063451;stroke-miterlimit:4;stroke-dasharray:none;stroke-opacity:1;"
       id="tspan65" /></text>
</svg>
