<?xml version="1.0" encoding="UTF-8" standalone="no"?>
<svg
   xmlns:dc="http://purl.org/dc/elements/1.1/"
   xmlns:cc="http://creativecommons.org/ns#"
   xmlns:rdf="http://www.w3.org/1999/02/22-rdf-syntax-ns#"
   xmlns:svg="http://www.w3.org/2000/svg"
   xmlns="http://www.w3.org/2000/svg"
   xmlns:sodipodi="http://sodipodi.sourceforge.net/DTD/sodipodi-0.dtd"
   xmlns:inkscape="http://www.inkscape.org/namespaces/inkscape"
   width="2500"
   height="2344"
   viewBox="0 0 256 240"
   preserveAspectRatio="xMinYMin meet"
   version="1.1"
   id="svg35"
   sodipodi:docname="eclipse-java-1.svg"
   inkscape:version="0.92.2 2405546, 2018-03-11">
  <metadata
     id="metadata39">
    <rdf:RDF>
      <cc:Work
         rdf:about="">
        <dc:format>image/svg+xml</dc:format>
        <dc:type
           rdf:resource="http://purl.org/dc/dcmitype/StillImage" />
        <dc:title></dc:title>
      </cc:Work>
    </rdf:RDF>
  </metadata>
  <sodipodi:namedview
     pagecolor="#ffffff"
     bordercolor="#666666"
     borderopacity="1"
     objecttolerance="10"
     gridtolerance="10"
     guidetolerance="10"
     inkscape:pageopacity="0"
     inkscape:pageshadow="2"
     inkscape:window-width="1920"
     inkscape:window-height="1023"
     id="namedview37"
     showgrid="false"
     inkscape:zoom="0.3378373"
     inkscape:cx="1255.92"
     inkscape:cy="1172"
     inkscape:window-x="0"
     inkscape:window-y="0"
     inkscape:window-maximized="1"
     inkscape:current-layer="svg35" />
  <defs
     id="defs17">
    <linearGradient
       x1="50%"
       y1="1089.396%"
       x2="50%"
       y2="-159.5%"
       id="a">
      <stop
         stop-color="#473788"
         offset="30.33%"
         id="stop2" />
      <stop
         stop-color="#2C2255"
         offset="87.2%"
         id="stop4" />
    </linearGradient>
    <linearGradient
       x1="49.999%"
       y1="896.537%"
       x2="49.999%"
       y2="-352.359%"
       id="b">
      <stop
         stop-color="#473788"
         offset="30.33%"
         id="stop7" />
      <stop
         stop-color="#2C2255"
         offset="87.2%"
         id="stop9" />
    </linearGradient>
    <linearGradient
       x1="49.999%"
       y1="215.17%"
       x2="49.999%"
       y2="-166.715%"
       id="c">
      <stop
         stop-color="#473788"
         offset="30.33%"
         id="stop12" />
      <stop
         stop-color="#2C2255"
         offset="86.31%"
         id="stop14" />
    </linearGradient>
  </defs>
  <path
     d="M70.382 153.049H31.26c5.18 17.768 14.792 33.693 28.864 47.768 22.434 22.436 49.41 33.64 80.956 33.64 6.306 0 12.416-.47 18.35-1.365 23.761-3.587 44.565-14.33 62.39-32.275 14.162-14.07 23.842-30 29.062-47.768H70.382zM48.81 99.915H28.373a119.493 119.493 0 0 0-1.488 13.775h228.399c-.233-4.7-.743-9.285-1.497-13.775M26.885 126.482c.231 4.703.738 9.287 1.488 13.775h225.418a118.86 118.86 0 0 0 1.5-13.775M250.887 87.12c-5.215-17.817-14.897-33.817-29.067-47.99-17.778-17.777-38.522-28.443-62.207-32.031a123.318 123.318 0 0 0-18.532-1.386c-31.546 0-58.524 11.143-80.956 33.418C46.048 53.303 36.43 69.303 31.254 87.12"
     fill="#2C2255"
     id="path19" />
  <path
     d="M20.093 120.09C20.093 59.753 65.407 9.621 124.357.803c-1.462-.053-2.932-.112-4.409-.112C53.796.692.164 54.15.164 120.09c0 65.943 53.63 119.397 119.784 119.397 1.482 0 2.951-.056 4.419-.11-58.96-8.817-104.274-58.95-104.274-119.287z"
     fill="#F7941E"
     id="path21" />
  <g
     id="g29">
    <path
       d="M155.728 14.226A77.824 77.824 0 0 0 153.364.451H2.642A77.753 77.753 0 0 0 .276 14.226h155.452z"
       fill="url(#a)"
       transform="translate(63.083 99.461)"
       id="path23" />
    <path
       d="M155.728 27.02H.278a77.611 77.611 0 0 0 2.364 13.776h150.724a77.821 77.821 0 0 0 2.362-13.776z"
       fill="url(#b)"
       transform="translate(63.083 99.461)"
       id="path25" />
    <path
       d="M78.003 98.636c31.3 0 58.282-18.441 70.706-45.048H7.297c12.425 26.607 39.405 45.048 70.706 45.048z"
       fill="url(#c)"
       transform="translate(63.083 99.461)"
       id="path27" />
  </g>
  <g
     fill="#FFF"
     id="g33"
     style="fill:#40317a;fill-opacity:1">
    <path
       d="M51.84 126.482h203.29c.108-2.035.168-4.084.168-6.147 0-2.232-.081-4.444-.208-6.647H26.885c-.126 2.2-.208 4.415-.208 6.647 0 2.063.06 4.112.168 6.147H51.84zM69.924 87.12H31.252c-1.271 4.166-2.091 8.44-2.879 12.795H253.065a113.52 113.52 0 0 0-3.075-12.795M238.373 140.255H28.371c.766 4.352 1.638 8.623 2.888 12.794H250.738a113.252 113.252 0 0 0 3.023-12.794h-15.388z"
       id="path31"
       style="fill:#40317a;fill-opacity:1" />
  </g>
  <g
     id="g858"
     transform="matrix(0.40088378,0,0,0.42996618,50.242245,2.7041266)">
    <path
       inkscape:connector-curvature="0"
       id="path22"
       style="fill:#ed1e24;fill-opacity:1;fill-rule:evenodd;stroke:none;stroke-width:1.91712976"
       d="M 197.21533,291.77956 185.841,275.24431 c -3.73649,-5.42931 -7.39245,-11.46635 -10.87396,-17.49381 -6.37254,-11.09059 -14.02572,-25.17766 -17.53982,-39.16696 -6.41664,-25.61861 9.40735,-41.50203 23.37364,-58.29225 2.11076,-2.56128 4.58386,-4.95003 6.86716,-7.35411 14.61812,-15.39647 34.64254,-33.83542 50.23456,-49.00759 15.84699,-15.50958 25.3943,-32.642969 27.24433,-57.730529 C 266.14381,33.10123 263.61895,5.0555383 254.36305,6.6291016e-5 257.11797,19.658315 257.75637,33.011125 249.79453,52.767147 c -9.21756,22.938458 -24.22677,36.657439 -41.64389,50.219213 -14.23661,11.08293 -37.53549,31.07093 -49.81662,42.64081 -7.94459,7.54198 -21.3875,21.02899 -26.95101,34.18625 -8.23024,19.45695 -0.069,32.19436 8.74595,45.79448 4.20043,6.48565 8.46988,12.02041 12.95596,17.82356 5.22609,6.77705 9.87705,11.45102 14.06406,16.75188 4.41132,5.61719 9.86939,10.78385 14.68522,16.13073 3.00222,3.30321 12.41725,13.38348 15.38113,15.46549" />
    <path
       inkscape:connector-curvature="0"
       id="path24"
       style="fill:#3c8ace;fill-opacity:1;fill-rule:evenodd;stroke:none;stroke-width:1.91712976"
       d="m 366.06654,460.46397 c 5.57884,8.99326 0.0671,12.80643 -7.55733,16.37804 -33.87952,15.86042 -148.44911,18.83389 -184.22467,19.35151 -36.47723,0.53871 -73.23244,-0.91447 -108.46737,-7.09338 -5.705378,-0.97965 -30.808276,-4.98645 -31.975808,-11.64465 -0.772603,-4.19276 3.669387,-7.34644 5.960357,-8.76895 8.103708,-5.04013 22.953795,-8.51397 33.168263,-10.37167 2.950462,-0.52529 10.087937,-1.29598 12.29647,-2.19511 -17.066289,-2.51528 -71.150438,6.61985 -82.9829633,23.44074 -7.459552,10.58831 5.0401343,15.50191 13.3585603,18.2204 31.176365,10.17613 96.052041,12.23704 130.276641,12.73741 51.1471,0.69017 174.23259,0.18021 219.33882,-30.81594 2.63605,-1.78868 7.81038,-5.56351 8.34143,-9.22523 0.64416,-4.56085 -4.76215,-8.84564 -7.5324,-10.01317" />
    <path
       inkscape:connector-curvature="0"
       id="path26"
       style="fill:#ed1e24;fill-opacity:1;fill-rule:evenodd;stroke:none;stroke-width:1.91712976"
       d="m 218.46863,312.60534 c 5.43698,-1.86537 21.47761,-15.01496 25.79882,-19.43395 5.66895,-5.88559 15.32361,-16.76722 16.1614,-29.35509 0.73426,-11.42801 -7.14514,-26.30877 -11.95906,-33.60345 -15.21817,-23.07266 -27.37853,-36.28168 -6.77705,-61.86386 6.88825,-8.51589 14.35547,-15.19517 23.088,-22.40742 10.4541,-8.6405 27.56449,-20.44427 39.81686,-28.13388 l 13.95863,-8.97216 c -7.39054,0.9739 -26.95868,8.80729 -34.67896,11.68298 -10.37359,3.90903 -22.33265,9.85405 -31.39301,15.0744 -31.09392,17.98076 -61.68556,46.10889 -49.17246,85.00553 8.46221,26.31453 33.1165,42.07909 31.34124,61.79677 -1.07934,12.07983 -12.68565,24.16733 -16.18441,30.21013" />
    <path
       inkscape:connector-curvature="0"
       id="path28"
       style="fill:#3c8ace;fill-opacity:1;fill-rule:evenodd;stroke:none;stroke-width:1.91712976"
       d="m 283.39031,441.28501 c -9.54922,-3.61763 -16.73846,-7.81039 -25.29077,-12.88887 -4.95003,-2.95813 -3.04057,-2.71849 -9.38244,-1.14452 -25.86783,6.37254 -67.81846,6.45497 -94.98036,5.63061 -6.98794,-0.21664 -26.63085,-0.82245 -30.59931,-7.40588 -2.52486,-4.141 0.91256,-7.16623 2.25455,-9.52621 -17.80247,3.58695 -35.932765,18.3776 -11.17495,30.68941 27.85973,13.82442 86.40696,13.97396 116.89315,8.55232 8.67885,-1.54329 48.1238,-10.53655 52.28013,-13.90686" />
    <path
       inkscape:connector-curvature="0"
       id="path30"
       style="fill:#3c8ace;fill-opacity:1;fill-rule:evenodd;stroke:none;stroke-width:1.91712976"
       d="m 291.6263,383.19406 c -7.35986,-1.85003 -13.96629,-6.44731 -18.48113,-10.40235 -3.9397,-3.37607 -2.59196,-2.53828 -11.05417,-1.12152 -30.45552,5.07656 -121.11659,13.94328 -147.07261,3.24187 -3.36265,-1.39376 -7.241,-3.47576 -7.48064,-7.43655 -0.27607,-4.70272 3.70773,-7.241 5.38522,-9.80995 -20.879464,2.58429 -40.903885,22.70648 -12.955967,32.31322 31.519527,10.79919 99.502867,11.15961 133.023887,6.93617 11.03692,-1.41676 50.18854,-9.03159 58.63541,-13.72089" />
    <path
       inkscape:connector-curvature="0"
       id="path32"
       style="fill:#3c8ace;fill-opacity:1;fill-rule:evenodd;stroke:none;stroke-width:1.91712976"
       d="m 312.59587,314.77744 c -3.96846,0.16488 -9.27891,1.39951 -13.28571,2.04366 -4.64904,0.69017 -9.07569,1.37075 -13.71898,1.98423 -27.90383,3.90903 -58.83863,7.06271 -86.77313,8.69419 -21.80735,1.28064 -104.063722,3.99913 -116.337187,-7.44997 -0.906803,-5.14557 4.986454,-8.37977 8.604078,-10.35825 14.100489,-7.56308 29.102029,-10.11669 42.993549,-14.46091 -19.1943,-1.80402 -67.452291,12.00507 -84.900089,22.9097 -18.872226,11.76351 12.580206,16.45281 24.345631,18.09195 68.859468,9.59332 133.248188,4.44775 201.342728,-5.22609 11.10593,-1.57397 13.48125,-0.93748 21.04433,-5.74372 5.22034,-3.32622 12.05683,-6.82307 16.68478,-10.48479" />
    <path
       inkscape:connector-curvature="0"
       id="path34"
       style="fill:#3c8ace;fill-opacity:1;fill-rule:evenodd;stroke:none;stroke-width:1.91712976"
       d="m 74.616796,522.14187 c 19.224978,8.07304 61.093174,12.99239 82.825754,14.75232 30.54755,2.50952 64.08199,1.91713 94.62186,-0.23965 39.53314,-2.80092 86.42038,-7.3311 121.20478,-24.98978 8.26858,-4.22344 23.1781,-14.29604 24.60828,-23.97179 -2.48652,1.1311 -4.63562,3.39332 -6.96301,4.95769 -61.34816,42.23629 -201.56128,38.2084 -273.9406,33.04749 l -42.357064,-3.55628" />
    <path
       inkscape:connector-curvature="0"
       id="path36"
       style="fill:#3c8ace;fill-opacity:1;fill-rule:evenodd;stroke:none;stroke-width:1.91712976"
       d="m 326.49506,298.30163 c 15.0303,-4.69505 32.12726,-1.57205 41.64581,6.89017 10.28924,9.17346 10.4081,26.5695 2.98689,40.04884 -9.92882,17.97309 -30.77185,34.00796 -48.02602,44.83591 -2.95813,1.86537 -5.81849,3.27254 -8.38744,5.17434 11.12894,-1.17521 37.52015,-13.09784 47.56207,-19.29783 12.8141,-7.91583 27.1178,-19.47037 33.01873,-34.44124 8.42387,-21.2533 -3.82659,-37.47414 -16.88033,-45.15032 -7.50365,-4.38831 -16.56592,-7.0167 -27.1178,-6.58151 -8.07112,0.32975 -21.1632,3.54094 -24.80191,8.52164" />
  </g>
</svg>
