<?xml version="1.0" encoding="UTF-8" standalone="no"?>
<svg
   xmlns:dc="http://purl.org/dc/elements/1.1/"
   xmlns:cc="http://creativecommons.org/ns#"
   xmlns:rdf="http://www.w3.org/1999/02/22-rdf-syntax-ns#"
   xmlns:svg="http://www.w3.org/2000/svg"
   xmlns="http://www.w3.org/2000/svg"
   xmlns:sodipodi="http://sodipodi.sourceforge.net/DTD/sodipodi-0.dtd"
   xmlns:inkscape="http://www.inkscape.org/namespaces/inkscape"
   width="3000"
   height="2000"
   viewBox="0 -410 3080 1900"
   id="svg2"
   sodipodi:version="0.32"
   inkscape:version="0.92.2 2405546, 2018-03-11"
   sodipodi:docname="xmind-1.svg"
   inkscape:output_extension="org.inkscape.output.svg.inkscape"
   version="1.0">
  <metadata
     id="metadata15">
    <rdf:RDF>
      <cc:Work
         rdf:about="">
        <dc:format>image/svg+xml</dc:format>
        <dc:type
           rdf:resource="http://purl.org/dc/dcmitype/StillImage" />
      </cc:Work>
    </rdf:RDF>
  </metadata>
  <defs
     id="defs13">
    <inkscape:perspective
       sodipodi:type="inkscape:persp3d"
       inkscape:vp_x="0 : 950 : 1"
       inkscape:vp_y="0 : 1000 : 0"
       inkscape:vp_z="3080 : 950 : 1"
       inkscape:persp3d-origin="1540 : 633.33333 : 1"
       id="perspective867" />
  </defs>
  <sodipodi:namedview
     inkscape:window-height="1023"
     inkscape:window-width="1920"
     inkscape:pageshadow="2"
     inkscape:pageopacity="0.0"
     guidetolerance="10.0"
     gridtolerance="10.0"
     objecttolerance="10.0"
     borderopacity="1.0"
     bordercolor="#666666"
     pagecolor="#ffffff"
     id="base"
     inkscape:zoom="1.712127"
     inkscape:cx="1306.6197"
     inkscape:cy="1130.0698"
     inkscape:window-x="0"
     inkscape:window-y="0"
     inkscape:current-layer="svg2"
     width="3000px"
     height="2000px"
     inkscape:showpageshadow="false"
     showgrid="false"
     inkscape:window-maximized="1" />
  <text
     xml:space="preserve"
     style="font-style:normal;font-weight:normal;line-height:0%;font-family:Lello;fill:#000000;fill-opacity:1;stroke:none;stroke-width:1px;stroke-linecap:butt;stroke-linejoin:miter;stroke-opacity:1"
     x="-471.24011"
     y="-946.41162"
     id="text2171"><tspan
       sodipodi:role="line"
       id="tspan2173"
       x="-471.24011"
       y="-946.41162"
       style="font-size:12px;line-height:1.25"> </tspan></text>
  <g
     id="g931"
     style="fill:#800080"
     transform="translate(-92.197365,27.836501)">
    <ellipse
       ry="114.50412"
       rx="118.64307"
       cy="373.27277"
       cx="1418.2764"
       id="path857"
       style="fill:#800080;fill-opacity:1;fill-rule:nonzero;stroke:#2c2255;stroke-width:0.11568756;stroke-miterlimit:4;stroke-dasharray:none;stroke-opacity:1" />
    <ellipse
       ry="51.046913"
       rx="60.704433"
       cy="204.9559"
       cx="1331.3588"
       id="path859"
       style="fill:#800080;fill-opacity:1;fill-rule:nonzero;stroke:#2c2255;stroke-width:0.10266667;stroke-miterlimit:4;stroke-dasharray:none;stroke-opacity:1" />
    <ellipse
       ry="48.287621"
       rx="57.945141"
       cy="493.30203"
       cx="1284.4506"
       id="path861"
       style="fill:#800080;fill-opacity:1;fill-rule:nonzero;stroke:#2c2255;stroke-width:0.10266667;stroke-miterlimit:4;stroke-dasharray:none;stroke-opacity:1" />
    <ellipse
       ry="57.956463"
       rx="60.025932"
       cy="490.54272"
       cx="1573.4866"
       id="path865"
       style="fill:#800080;fill-opacity:1;fill-rule:nonzero;stroke:#2c2255;stroke-width:0.08001494;stroke-miterlimit:4;stroke-dasharray:none;stroke-opacity:1" />
    <path
       inkscape:connector-curvature="0"
       d="m 1343.6932,185.57209 c 9.5461,6.80832 17.8245,15.09191 25.667,23.75444 10.0874,11.25526 19.0819,23.49222 27.0364,36.33637 4.8278,7.90089 9.8329,15.7624 13.0386,24.48493 2.446,4.53298 3.3141,9.55476 4.6837,14.43729 1.5706,4.52819 2.2053,9.28055 3.3612,13.91663 1.2609,3.8047 2.7167,7.6122 4.3018,11.30692 0.795,1.75135 1.5297,3.51226 2.1777,5.32219 0,0 -35.9689,19.84159 -35.9689,19.84159 v 0 c -0.5528,-1.72286 -1.2061,-3.39636 -1.974,-5.03744 -1.7265,-3.8701 -3.1903,-7.94759 -4.5304,-11.94998 -1.1867,-4.58004 -1.9109,-9.2364 -3.3463,-13.74834 -1.4688,-4.7864 -1.9823,-9.86172 -4.4161,-14.35831 -2.8066,-8.56538 -7.612,-16.25757 -12.1201,-24.01238 -7.667,-12.72514 -16.3928,-24.82906 -26.5299,-35.71852 -7.8484,-8.3471 -16.0293,-16.49 -25.8856,-22.4823 0,0 34.5049,-22.09309 34.5049,-22.09309 z"
       id="path883"
       style="fill:#800080;fill-opacity:1;fill-rule:nonzero;stroke:#2c2255;stroke-width:0.10266667;stroke-miterlimit:4;stroke-dasharray:none;stroke-opacity:1" />
    <path
       inkscape:connector-curvature="0"
       d="m 1446.6063,437.08352 c 3.9775,3.79178 8.6072,7.42787 13.2507,11.06067 3.1247,2.81645 8.0463,5.01919 12.6856,7.32022 3.4555,1.63215 6.9885,3.27046 10.8364,4.72271 3.6724,1.01915 7.2899,2.1341 10.4042,3.48174 3.2152,1.41948 6.7777,2.59401 10.5103,3.7304 4.9054,1.45682 9.5119,3.12024 14.5961,4.45773 3.9986,1.26166 8.1663,2.54361 12.7295,3.36448 4.369,0.59524 8.5025,1.48097 12.633,2.34803 0.6741,0.10423 1.377,0.17695 2.0223,0.31269 5.8546,1.23137 -1.493,-0.0798 3.9925,0.97841 2.1142,0.40787 4.2127,0.58093 6.3046,1.03128 3.7684,0.71298 7.6155,1.1376 11.4106,1.79951 4.0987,0.23779 7.4877,1.31242 11.4432,1.74914 2.1879,0.21204 1.0857,0.12997 3.3066,0.24638 0,0 -35.9787,11.22382 -35.9787,11.22382 v 0 c -2.4479,-0.27249 -1.251,-0.1217 -3.5925,-0.44973 -3.8441,-0.65082 -7.5836,-1.38588 -11.5795,-1.84974 -3.803,-0.64332 -7.8181,-1.02417 -11.4604,-1.86696 -4.2656,-0.68718 -8.317,-1.53486 -12.4253,-2.38834 -4.0994,-0.87934 -8.3886,-1.56562 -12.5914,-2.3391 -4.5038,-1.04413 -8.8073,-2.26686 -12.9327,-3.58473 -4.9974,-1.44503 -9.7344,-3.05768 -14.7151,-4.51429 -3.9341,-1.17296 -7.5162,-2.50324 -10.9547,-3.95144 -3.2727,-1.25657 -6.875,-2.31313 -10.3334,-3.46255 -3.812,-1.57973 -7.5558,-3.20458 -11.0255,-4.93424 -4.8013,-2.41615 -9.6174,-4.84232 -12.9257,-7.74826 -4.5275,-3.65503 -9.0051,-7.31748 -13.4712,-10.98789 0,0 37.8605,-9.74994 37.8605,-9.74994 z"
       id="path893"
       style="fill:#800080;fill-opacity:1;fill-rule:nonzero;stroke:#2c2255;stroke-width:0.07326923;stroke-miterlimit:4;stroke-dasharray:none;stroke-opacity:1" />
    <path
       inkscape:connector-curvature="0"
       d="m 1387.9907,334.97245 c -5.3513,4.78343 -10.5571,9.71023 -15.6726,14.74214 -4.0386,3.59871 -7.3918,7.85207 -10.7142,12.09612 -2.8859,3.36076 -5.8758,6.5994 -8.4292,10.22825 -2.9328,3.77067 -5.4952,7.80534 -8.2262,11.72109 -2.7101,3.15455 -4.598,6.87953 -7.1707,10.13665 -2.3913,3.21829 -4.1325,6.8311 -6.1547,10.27291 -1.9449,3.60832 -3.5786,7.3812 -5.5538,10.97134 -1.8802,3.26973 -2.5899,6.94865 -3.0472,10.64131 0.01,3.61319 -1.2652,6.9842 -2.1024,10.44427 -0.2548,3.48453 -1.3751,6.72121 -2.3083,10.05178 -1.007,3.34593 -1.1185,6.84579 -1.272,10.30859 0.2483,2.89335 -0.3368,5.44205 -1.3713,8.09167 -0.5573,2.17531 -1.4983,3.94743 -2.6214,5.84595 -1.0681,2.24686 -1.8178,4.5083 -3.3265,6.55393 -1.3856,1.47296 -2.7431,2.98175 -4.0083,4.57257 0,0 -37.3491,17.00345 -37.3491,17.00345 v 0 c 0.7057,-2.57776 1.8115,-3.76828 3.3663,-5.74841 2.0343,-1.5859 3.2638,-2.86625 3.79,-5.36906 0.303,-0.74105 0.4463,-1.56187 0.8806,-2.23433 0.8194,-1.26917 1.8223,-1.00583 1.915,-3.27076 0.8996,-2.42817 2.4313,-4.17586 2.0347,-6.8993 0.077,-3.72927 0.2754,-7.48327 0.8725,-11.16685 0.8561,-3.32004 2.2716,-6.34737 2.4632,-9.77346 0.4844,-3.47671 1.9932,-6.6477 2.2624,-10.09243 0.2559,-4.12476 0.9138,-8.24739 2.4051,-12.12057 1.85,-3.68856 3.9342,-7.24003 5.5202,-11.03983 1.8802,-3.66102 3.9966,-7.13871 5.9409,-10.74461 2.3386,-3.4913 5.1621,-6.61168 7.1148,-10.38263 3.3523,-3.42253 5.4872,-7.76734 8.2672,-11.64757 2.0167,-2.26644 3.3514,-5.00483 5.4299,-7.23737 0.4697,-0.50443 1.0911,-0.85332 1.5537,-1.36426 0.5135,-0.56725 0.9049,-1.23415 1.3573,-1.85122 3.9239,-3.86002 6.6179,-8.79229 10.704,-12.54157 5.4008,-4.60576 9.971,-10.14087 15.5895,-14.51545 0,0 37.8606,-15.68234 37.8606,-15.68234 z"
       id="path895"
       style="fill:#800080;fill-opacity:1;fill-rule:nonzero;stroke:#2c2255;stroke-width:0.10266667;stroke-miterlimit:4;stroke-dasharray:none;stroke-opacity:1" />
    <ellipse
       ry="39.379074"
       rx="48.969391"
       transform="matrix(0.99888978,-0.04710854,0.07296165,0.99733475,0,0)"
       cy="319.28946"
       cx="1545.0077"
       id="path865-0"
       style="fill:#800080;fill-opacity:1;fill-rule:nonzero;stroke:#2c2255;stroke-width:0.05957248;stroke-miterlimit:4;stroke-dasharray:none;stroke-opacity:1" />
    <path
       inkscape:connector-curvature="0"
       d="m 1477.6726,280.85428 c 6.5461,-1.38489 12.8858,-3.59829 19.1766,-5.84584 6.1265,-2.40216 12.2857,-4.71341 18.3758,-7.20681 3.5719,-1.4653 6.8949,-3.36049 10.0195,-5.6047 2.1867,-1.60483 4.406,-3.16157 6.5668,-4.80464 2.2538,-1.59342 4.4926,-3.22209 6.6373,-4.96471 2.3607,-1.81446 4.6128,-3.76251 6.9373,-5.63 2.0786,-1.91563 4.0432,-3.94211 6.1392,-5.83838 2.0099,-2.18137 3.9131,-4.43562 5.7067,-6.79557 1.9159,-2.08952 3.6808,-4.32072 5.319,-6.63129 1.5654,-1.746 2.9665,-3.64091 4.2865,-5.57556 0.6367,-1.73177 2.1997,-2.75116 3.1752,-4.25383 0,0 10.8528,17.41065 10.8528,17.41065 v 0 c -1.0964,1.38916 -2.3913,2.60171 -3.1718,4.22306 -1.3975,1.89534 -2.7531,3.82446 -4.3291,5.57967 -1.7281,2.25034 -3.4629,4.49542 -5.3773,6.59326 -1.868,2.44818 -3.8571,4.80734 -5.9966,7.02333 -2.102,1.94372 -4.1205,3.97221 -6.262,5.87447 -2.3081,1.87934 -4.5558,3.82983 -6.9264,5.6266 -2.1517,1.77096 -4.3985,3.42255 -6.6804,5.02011 -2.1701,1.67399 -4.4283,3.22337 -6.6496,4.82569 -3.2977,2.27594 -6.8025,4.18367 -10.539,5.65857 -6.1718,2.37024 -12.364,4.68 -18.5288,7.0684 -6.3336,2.27217 -12.7029,4.4488 -19.1656,6.32887 0,0 -9.5661,-18.08135 -9.5661,-18.08135 z"
       id="path920"
       style="fill:#800080;fill-opacity:1;fill-rule:nonzero;stroke:#2c2255;stroke-width:0.10266667;stroke-miterlimit:4;stroke-dasharray:none;stroke-opacity:1" />
  </g>
</svg>
